HIERARCHY
ROOT Hips
{
	OFFSET 0.000000 0.000000 0.000000 
	CHANNELS 6 Xposition Yposition Zposition Yrotation Zrotation Xrotation 
	JOINT Lumbar
	{
		OFFSET 0.000000 0.000000 0.000000 
		CHANNELS 3 Zrotation Xrotation Yrotation
		JOINT Neck
		{
			OFFSET 0.000000 0.445665 0.000000 
			CHANNELS 3 Zrotation Xrotation Yrotation
			End Site
			{
				OFFSET 0.000000 0.227535 0.000000 
			}
		}
		JOINT RightShoulder
		{
			OFFSET 0.019635 0.377685 0.194865 
			CHANNELS 3 Zrotation Xrotation Yrotation
			JOINT RightElbow
			{
				OFFSET 0.000000 -0.243375 0.000000 
				CHANNELS 2 Zrotation Yrotation
				JOINT RightWrist
				{
					OFFSET 0.000000 -0.264825 0.000000 
					CHANNELS 2 Zrotation Xrotation
					End Site
					{
						OFFSET 0.006600 -0.176220 0.000990 
					}
				}
			}
		}
		JOINT LeftShoulder
		{
			OFFSET 0.019635 0.377685 -0.194865 
			CHANNELS 3 Zrotation Xrotation Yrotation
			JOINT LeftElbow
			{
				OFFSET 0.000000 -0.243375 0.000000 
				CHANNELS 2 Zrotation Yrotation
				JOINT LeftWrist
				{
					OFFSET 0.000000 -0.264825 0.000000 
					CHANNELS 2 Zrotation Xrotation
					End Site
					{
						OFFSET 0.006600 -0.176220 -0.000990 
					}
				}
			}
		}
	}
	JOINT RightHip
	{
		OFFSET 0.052140 -0.069960 0.075570 
		CHANNELS 3 Zrotation Xrotation Yrotation
		JOINT RightKnee
		{
			OFFSET 0.000000 -0.402270 0.000000 
			CHANNELS 1 Zrotation
			JOINT RightAnkle
			{
				OFFSET 0.000000 -0.404085 0.000000 
				CHANNELS 3 Zrotation Xrotation Yrotation
				End Site
				{
					OFFSET 0.204105 -0.089430 0.008415 
				}
			}
		}
	}
	JOINT LeftHip
	{
		OFFSET 0.052140 -0.069960 -0.075570 
		CHANNELS 3 Zrotation Xrotation Yrotation
		JOINT LeftKnee
		{
			OFFSET 0.000000 -0.402270 0.000000 
			CHANNELS 1 Zrotation
			JOINT LeftAnkle
			{
				OFFSET 0.000000 -0.404085 0.000000 
				CHANNELS 3 Zrotation Xrotation Yrotation
				End Site
				{
					OFFSET 0.204105 -0.089430 -0.008415 
				}
			}
		}
	}
}
MOTION
Frames: 22
Frame Time: 0.02
-0.56575 -0.16066 0.94388 808.28853 -18.58765 -15.55054 35.65266 3.53743 12.39345 -12.93129 9.24686 -2.11994 6.91586 5.03494 49.52653 93.50415 88.63323 -9.57782 -6.64556 -37.86355 20.60628 19.43993 60.10347 -80.92856 -4.16073 0.16145 28.51755 -2.79243 -19.68087 -31.15534 -7.1581 -3.59537 -4.01233 48.47393 7.77854 -11.39187 -76.2351 -11.12147 1.28938 3.06996
-0.56252 -0.15773 0.93631 808.95261 -18.79855 -14.93181 35.55844 3.78815 13.59897 -13.32301 8.74086 -2.11994 7.16752 4.85635 49.93405 93.50285 89.58725 -10.0175 -6.83756 -39.80876 22.81918 26.14333 56.8545 -80.33217 -4.56902 -0.0244 28.21391 -3.13748 -19.54539 -31.40115 -7.2405 -3.62961 -4.03455 49.51404 6.54995 -8.65323 -75.0483 -10.95714 1.35791 3.0992
-0.56057 -0.15414 0.92865 809.33333 -19.08538 -14.25796 35.58859 4.05926 14.75627 -13.76229 8.12843 -2.11994 7.49787 4.49185 50.3873 93.65791 90.379 -10.42512 -6.97743 -42.05944 25.36264 33.74045 53.52558 -79.56458 -5.03257 -0.21581 28.05565 -3.57833 -19.29009 -31.50658 -7.34858 -3.64029 -4.04663 50.38181 5.42154 -5.41743 -72.70909 -10.87543 1.34099 3.08981
-0.55805 -0.1509 0.92104 809.83775 -19.3409 -13.62069 35.56074 4.32091 15.92015 -14.17639 7.57185 -2.11994 7.78803 4.22485 50.80221 93.73127 91.22835 -10.87174 -7.12775 -44.19669 27.85579 40.9048 50.1568 -78.78878 -5.5982 -0.39797 27.83469 -3.96462 -19.08702 -31.67414 -7.44337 -3.66002 -4.06237 51.30184 4.25761 -2.41558 -70.82492 -10.75147 1.36682 3.09957
-0.55551 -0.14745 0.91345 810.35261 -19.58233 -12.92519 35.53839 4.58449 17.15798 -14.60868 6.98039 -2.11994 8.09992 3.90233 51.29687 93.84782 92.15872 -11.22163 -7.32989 -46.32628 29.93049 48.31487 47.08388 -78.34137 -5.66722 -0.60586 27.60256 -4.40384 -18.88779 -31.83755 -7.54677 -3.68418 -4.08097 52.33402 3.03765 0.65319 -69.22983 -10.63885 1.37716 3.10274
-0.55331 -0.14429 0.90576 810.78278 -19.87129 -12.34208 35.53491 4.84794 18.22567 -15.01179 6.43721 -2.11994 8.38382 3.65241 51.63418 93.91251 92.87741 -11.75736 -7.41543 -48.42698 32.96157 55.2732 43.40746 -77.21311 -6.73036 -0.76554 27.42688 -4.7522 -18.65335 -31.98102 -7.63778 -3.69482 -4.09181 53.08757 1.96024 3.67724 -66.75472 -10.52506 1.40034 3.11106
-0.55167 -0.142 0.89786 811.04639 -20.27363 -12.07624 35.54717 5.1121 18.84826 -15.3397 6.0579 -2.11994 8.57459 3.63707 51.52571 93.79258 93.04259 -12.88252 -7.16389 -51.39437 38.44656 62.06745 37.8147 -73.86099 -11.00342 -0.75006 27.37302 -4.83824 -18.36288 -32.09799 -7.68656 -3.66987 -4.08162 53.15557 1.29367 6.58421 -62.19365 -10.39694 1.4716 3.13852
-0.55032 -0.14006 0.88984 811.23631 -20.72105 -11.92769 35.57546 5.37391 19.29726 -15.6331 5.73046 -2.11994 8.73365 3.70281 51.25707 93.61615 92.99898 -14.18273 -6.80151 -54.16158 44.89144 68.17049 31.66792 -69.89518 -16.1933 -0.69123 27.36989 -4.82708 -18.04051 -32.20226 -7.72195 -3.63313 -4.06445 52.94259 0.76292 9.39961 -56.78101 -10.26681 1.56501 3.17574
-0.54885 -0.13802 0.88185 811.46307 -21.14754 -11.73136 35.60008 5.63315 19.81676 -15.93108 5.37695 -2.11994 8.90432 3.73947 51.06032 93.46751 93.05606 -15.35834 -6.50925 -56.30975 50.97645 73.68311 25.95138 -66.47132 -20.64114 -0.68148 27.34255 -4.85103 -17.725 -32.31779 -7.76441 -3.60487 -4.05204 52.82988 0.14372 12.17321 -51.71195 -10.12983 1.64691 3.2081
-0.54735 -0.1357 0.874 811.66632 -21.57886 -11.5106 35.61295 5.90978 20.37215 -16.27808 5.03055 -2.11994 9.08874 3.73884 50.86681 93.31418 93.08753 -16.72431 -6.13464 -61.33765 56.78888 82.88252 19.47796 -61.95711 -26.43531 -0.55656 27.32664 -4.91436 -17.43458 -32.40538 -7.80397 -3.56289 -4.03272 52.82272 -0.36404 15.32709 -46.76521 -10.01837 1.71113 3.2305
-0.54599 -0.13406 0.8658 811.90388 -22.00944 -11.36808 35.65349 6.14775 20.80962 -16.51359 4.68263 -2.11994 9.23703 3.83508 50.63074 93.15666 93.1194 -17.73413 -5.90232 -60.47731 63.34495 84.43218 14.45132 -59.53756 -29.67901 -0.65028 27.29526 -4.87424 -17.08949 -32.54961 -7.84564 -3.54658 -4.02605 52.53649 -1.06719 17.64758 -41.40247 -9.86476 1.84469 3.28951
-0.54482 -0.13416 0.8568 812.26282 -22.42981 -11.4245 35.75764 6.29347 20.98549 -16.45391 4.32239 -2.11994 9.28353 4.20098 50.29141 92.98811 93.24957 -17.73155 -6.12116 -42.00319 72.12725 63.23726 13.55234 -63.33866 -25.33589 -1.4532 27.22322 -4.54705 -16.57131 -32.85784 -7.89991 -3.60787 -4.05808 51.50339 -2.39157 17.80837 -34.88445 -9.48091 1.92345 3.32699
-0.5438 -0.13494 0.8474 812.65818 -22.84685 -11.55376 35.89027 6.39784 21.04503 -16.28212 3.95863 -2.11994 9.29604 4.65828 49.91914 92.81897 93.3792 -17.36204 -6.4815 -17.86077 81.54723 34.68263 14.13108 -69.21783 -18.45193 -2.46095 27.13021 -4.12375 -16.00546 -33.22333 -7.95607 -3.69472 -4.10273 50.20808 -3.9085 17.11713 -28.02471 -9.07071 2.10447 3.41755
-0.54278 -0.13544 0.83807 813.03334 -23.26331 -11.64239 36.01485 6.51168 21.14369 -16.1587 3.59394 -2.11994 9.33034 5.06035 49.57806 92.6581 93.47998 -17.15166 -6.75688 2.75537 90.40598 10.68545 14.03357 -73.95679 -12.94307 -3.31137 27.03681 -3.7599 -15.48162 -33.56047 -8.00882 -3.76761 -4.14038 49.06359 -5.30616 16.72461 -21.46623 -8.75351 2.41251 3.57055
-0.54149 -0.13581 0.82924 813.42322 -23.6907 -11.76685 36.11876 6.66411 21.29361 -16.04524 3.24127 -2.11994 9.33749 5.52338 49.16307 92.46174 93.69744 -16.97974 -7.11547 27.34983 100.4435 -18.39515 13.92983 -79.49492 -6.5435 -4.42723 26.98801 -3.32432 -14.87048 -33.90717 -8.07154 -3.85033 -4.18326 47.77682 -6.83384 16.66848 -14.25461 -8.11469 2.03876 3.38331
-0.5408 -0.13661 0.81926 813.78949 -24.09331 -11.83245 36.2731 6.72724 21.31228 -15.88456 2.86254 -2.11994 9.39268 5.87957 48.89613 92.33968 93.67294 -16.63805 -7.33588 45.05225 108.16582 -38.70222 14.20556 -83.87758 -1.37408 -5.04481 26.83961 -3.01884 -14.43052 -34.24741 -8.11459 -3.91835 -4.21815 46.72619 -8.13734 15.75354 -8.34157 -8.11386 3.04645 3.88598
-0.54158 -0.1384 0.8064 814.10481 -24.43263 -11.71737 36.55198 6.54613 20.99025 -15.6236 2.40918 -2.11994 9.59596 5.92292 49.04805 92.42438 92.99615 -15.91922 -7.14013 41.89888 109.31848 -32.32659 15.10161 -84.4988 -0.30328 -4.19049 26.43035 -3.07649 -14.46913 -34.56044 -8.09987 -3.94357 -4.22974 46.407 -8.78263 12.29925 -6.03708 -10.10457 8.39149 6.55387
-0.54301 -0.14059 0.79237 814.39133 -24.74566 -11.54 36.88175 6.27796 20.54241 -15.3188 1.93059 -2.11994 9.84752 5.85441 49.35035 92.58372 92.07509 -15.04159 -6.8012 31.69633 108.11575 -16.98697 16.34478 -83.90019 -0.53914 -2.83689 25.92024 -3.27209 -14.67996 -34.86521 -8.06678 -3.95244 -4.23262 46.33269 -9.1947 8.07617 -5.0679 -12.69894 15.02808 9.86671
-0.54425 -0.14258 0.77876 814.67607 -25.06815 -11.3908 37.19353 6.05486 20.15727 -15.03228 1.465 -2.11994 10.07255 5.83374 49.58353 92.70835 91.25525 -14.23376 -6.52809 25.00487 108.00298 -6.17684 17.47367 -83.90406 -0.11894 -1.74157 25.44932 -3.41844 -14.81963 -35.1695 -8.04304 -3.96618 -4.23825 46.13829 -9.70931 4.45813 -3.5306 -14.86737 20.70496 12.70063
-0.54502 -0.14467 0.76561 815.02421 -25.40269 -11.24484 37.48562 5.80744 19.74405 -14.74815 0.99087 -2.11994 10.31601 5.82884 49.81947 92.83681 90.47212 -13.42069 -6.25577 17.20573 107.8403 6.30258 18.46565 -83.77696 0.12877 -0.51897 25.00321 -3.50641 -14.93965 -35.48948 -8.01161 -3.99154 -4.24918 45.97346 -10.24588 -0.25017 -1.81372 -17.66501 27.92964 16.30645
-0.54694 -0.14664 0.75123 815.23376 -25.70386 -11.0763 37.82918 5.59009 19.36173 -14.45086 0.53105 -2.11994 10.53263 5.76345 50.08492 92.97435 89.56015 -12.5888 -5.9471 9.97483 107.20163 17.52677 19.81177 -83.60588 0.3897 0.55735 24.48492 -3.74775 -15.12701 -35.77929 -7.99625 -3.9886 -4.24712 45.80646 -10.67785 -2.88277 -0.79708 -19.30823 32.27288 18.47513
-0.55174 -0.14825 0.7338 815.06147 -25.93641 -10.86112 38.31212 5.48092 19.08988 -14.12242 0.09618 -2.11994 10.66745 5.55636 50.4031 93.12518 88.30396 -11.7179 -5.56292 5.92869 105.927 23.15564 21.99267 -83.60501 1.01822 1.12831 23.76635 -4.40024 -15.59288 -35.94578 -7.99109 -3.91013 -4.20866 45.59242 -10.88575 0.61344 -1.35151 -17.51056 28.02226 16.36024
